<svg xmlns="http://www.w3.org/2000/svg" viewBox="0 0 200 200" aria-hidden="true">
  <defs>
    <filter id="bsBlur" x="-20%" y="-20%" width="140%" height="140%">
      <feGaussianBlur stdDeviation="2.4"/>
    </filter>
    <radialGradient id="bsGrad" cx="50%" cy="48%" r="55%">
      <stop offset="0" stop-color="#5a1010" stop-opacity="0.9"/>
      <stop offset="0.55" stop-color="#3a0a0a" stop-opacity="0.7"/>
      <stop offset="1" stop-color="#3a0a0a" stop-opacity="0"/>
    </radialGradient>
  </defs>
  <g filter="url(#bsBlur)">
    <path fill="url(#bsGrad)" d="M104,30 C124,28 132,52 128,72 C148,78 152,100 138,118 C146,140 122,154 102,148 C82,162 60,150 60,128 C40,124 36,98 54,84 C50,62 70,46 88,52 C90,40 94,32 104,30 Z"/>
    <circle cx="150" cy="60" r="6" fill="#3a0a0a" fill-opacity="0.5"/>
    <circle cx="50" cy="160" r="4" fill="#3a0a0a" fill-opacity="0.45"/>
    <circle cx="170" cy="120" r="3" fill="#3a0a0a" fill-opacity="0.4"/>
  </g>
</svg>
